<?xml version="1.0" encoding="iso-8859-1"?>
<!-- Generator: Adobe Illustrator 19.0.0, SVG Export Plug-In . SVG Version: 6.00 Build 0)  -->
<svg version="1.1" id="Capa_1" xmlns="http://www.w3.org/2000/svg" xmlns:xlink="http://www.w3.org/1999/xlink" x="0px" y="0px"
	 viewBox="0 0 512 512" style="enable-background:new 0 0 512 512;" xml:space="preserve">
<g>
	<g>
		<path d="M372.127,47.814C341.046,16.952,299.896,0.001,256.124,0.001c-0.396,0-0.801,0.001-1.197,0.004
			c-42.734,0.301-83.195,17.044-113.931,47.145c-30.742,30.107-48.313,70.211-49.474,112.922
			c-1.211,44.509,15.092,86.664,45.906,118.701c24.265,25.228,37.628,58.783,37.628,94.486v68.682
			c0,14.111,9.797,25.97,22.943,29.151v9.158c0,17.507,14.243,31.75,31.75,31.75h52.5c17.507,0,31.75-14.243,31.75-31.75v-9.105
			c13.261-3.099,23.171-15.012,23.171-29.204v-68.68c0-35.236,13.73-69.179,38.663-95.575
			c28.976-30.677,44.934-70.819,44.934-113.032C420.767,120.454,403.493,78.959,372.127,47.814z M294,480.251
			c0,6.479-5.271,11.75-11.75,11.75h-52.5c-6.479,0-11.75-5.271-11.75-11.75v-8.313h76V480.251z M317.171,441.941
			c0,5.512-4.484,9.997-9.997,9.997H304h-96h-2.946c-5.513,0-9.997-4.485-9.997-9.997v-56.875h122.114V441.941z M240.405,365.066
			V238.579h31.154v126.486H240.405z M361.295,263.952c-26.522,28.08-41.938,63.714-43.908,101.113h-25.828V238.579h8.988
			c15.984,0,28.989-13.004,28.989-28.989v-1.55c0-15.985-13.005-28.989-28.989-28.989s-28.988,13.004-28.988,28.989v10.539h-31.154
			V208.04c0-15.985-13.004-28.989-28.988-28.989h-1.97c-15.984,0-28.988,13.004-28.988,28.989v1.55
			c0,15.984,13.004,28.989,28.988,28.989h10.958v126.486h-25.554c-1.909-37.823-17.01-73.128-43.008-100.157
			c-27.07-28.144-41.393-65.183-40.328-104.292c2.094-76.99,66.491-140.068,143.553-140.612
			c38.894-0.273,75.414,14.643,102.968,42.002c27.557,27.362,42.732,63.817,42.732,102.648
			C400.768,201.74,386.749,237.004,361.295,263.952z M291.559,218.579V208.04c0-4.957,4.032-8.989,8.988-8.989
			c4.957,0,8.989,4.033,8.989,8.989v1.55c0,4.957-4.032,8.989-8.989,8.989H291.559z M220.404,208.04v10.539h0h-10.958
			c-4.956,0-8.988-4.032-8.988-8.989v-1.55c0-4.957,4.032-8.989,8.988-8.989h1.97C216.372,199.051,220.404,203.085,220.404,208.04z"
			/>
	</g>
</g>
<g>
	<g>
		<path d="M363.307,121.365c-8.59-21.326-23.2-39.475-42.249-52.485c-19.526-13.335-42.414-20.295-66.131-20.128
			c-5.523,0.039-9.969,4.548-9.93,10.071c0.039,5.499,4.509,9.929,9.998,9.929c0.024,0,0.049,0,0.072,0
			c0.235-0.001,0.464-0.002,0.698-0.002c39.379,0,74.262,23.525,88.992,60.088c1.57,3.898,5.319,6.266,9.278,6.266
			c1.244,0,2.51-0.233,3.734-0.727C362.891,132.313,365.372,126.487,363.307,121.365z"/>
	</g>
</g>
<g>
	<g>
		<path d="M368.74,157.581c-1.86-1.86-4.44-2.93-7.07-2.93s-5.21,1.07-7.07,2.93c-1.87,1.86-2.93,4.44-2.93,7.07
			c0,2.64,1.06,5.21,2.93,7.07c1.86,1.87,4.43,2.93,7.07,2.93c2.63,0,5.21-1.06,7.07-2.93c1.859-1.86,2.93-4.43,2.93-7.07
			C371.67,162.021,370.6,159.441,368.74,157.581z"/>
	</g>
</g>
<g>
	<g>
		<path d="M464.43,49.809c-3.906-3.905-10.236-3.905-14.143,0l-18.631,18.631c-3.905,3.905-3.905,10.237,0,14.143
			c1.953,1.953,4.512,2.929,7.072,2.929s5.118-0.976,7.071-2.929l18.631-18.631C468.335,60.047,468.335,53.715,464.43,49.809z"/>
	</g>
</g>
<g>
	<g>
		<path d="M464.429,265.358l-18.63-18.631c-3.905-3.905-10.235-3.905-14.143,0c-3.905,3.905-3.905,10.237,0,14.142l18.631,18.631
			c1.953,1.953,4.512,2.929,7.071,2.929s5.118-0.977,7.071-2.929C468.334,275.595,468.334,269.263,464.429,265.358z"/>
	</g>
</g>
<g>
	<g>
		<path d="M502,154.655h-26.349c-5.522,0-10,4.477-10,10s4.478,10,10,10H502c5.522,0,10-4.477,10-10S507.522,154.655,502,154.655z"
			/>
	</g>
</g>
<g>
	<g>
		<path d="M80.343,68.441L61.713,49.81c-3.906-3.905-10.236-3.905-14.143,0c-3.905,3.905-3.905,10.237,0,14.143l18.631,18.631
			c1.953,1.953,4.512,2.929,7.071,2.929c2.559,0,5.118-0.976,7.071-2.929C84.248,78.678,84.248,72.347,80.343,68.441z"/>
	</g>
</g>
<g>
	<g>
		<path d="M80.343,246.726c-3.905-3.906-10.236-3.906-14.142,0L47.57,265.358c-3.905,3.905-3.905,10.237,0,14.142
			c1.953,1.953,4.512,2.929,7.071,2.929c2.559,0,5.118-0.977,7.071-2.929l18.631-18.631
			C84.248,256.963,84.248,250.632,80.343,246.726z"/>
	</g>
</g>
<g>
	<g>
		<path d="M36.349,154.655H10c-5.522,0-10,4.477-10,10s4.478,10,10,10h26.349c5.522,0,10-4.477,10-10S41.871,154.655,36.349,154.655
			z"/>
	</g>
</g>
<g>
</g>
<g>
</g>
<g>
</g>
<g>
</g>
<g>
</g>
<g>
</g>
<g>
</g>
<g>
</g>
<g>
</g>
<g>
</g>
<g>
</g>
<g>
</g>
<g>
</g>
<g>
</g>
<g>
</g>
</svg>
