<svg id="Capa_1" enable-background="new 0 0 512 512" height="512" viewBox="0 0 512 512" width="512" xmlns="http://www.w3.org/2000/svg"><g><path d="m442.6 410.648c23.48-35.997 35.816-77.471 35.816-121.064 0-56.736-21.364-110.761-60.156-152.122-2.834-3.02-7.58-3.174-10.602-.34s-3.173 7.58-.34 10.602c36.175 38.57 56.098 88.951 56.098 141.86 0 46.311-14.915 90.06-43.129 126.605-11.801 8.226-31.878 2.803-55.191-3.827 36.068-32.109 55.192-76.831 55.192-122.778 0-84.258-63.737-154.65-146.976-163.373-7.879-18.134-30.297-24.207-46.198-12.868-14.094 10.05-40.784.185-67.896-7.236 69.006-36.472 155.816-31.947 221.775 17.939 3.299 2.494 8.003 1.852 10.506-1.458 2.499-3.304 1.847-8.007-1.457-10.506-21.228-16.055-44.699-27.963-69.588-35.473l-3.108-42.63c-1.39-19.053-17.444-33.979-36.547-33.979h-49.598c-19.104 0-35.157 14.926-36.548 33.98l-3.113 42.696c-18.742 5.666-36.717 13.815-53.481 24.32-26.269-5.239-54.54-5.762-79.932 12.347-13.87 9.892-17.094 29.123-7.199 42.996 4.608 6.46 11.269 10.607 18.47 12.189-23.472 36.023-35.813 77.556-35.813 121.055 0 72.894 35.803 141.253 95.771 182.862 3.381 2.346 8.061 1.538 10.438-1.887 2.361-3.403 1.517-8.076-1.887-10.438-55.931-38.807-89.322-102.559-89.322-170.538 0-44.824 14.047-87.406 40.625-123.287 1.623-.769 3.202-1.681 4.715-2.759 0 0 0 0 0-.001 11.216-7.999 30.51-3.113 53.022 3.23-35.982 32.009-55.234 76.703-55.234 122.816 0 85.088 65.157 155.965 149.271 163.589 7.668 18.135 30.233 24.544 46.287 13.096 13.708-9.779 40.467-.164 65.578 6.757-29.726 15.727-62.862 23.977-96.849 23.977-30.988 0-60.79-6.665-88.579-19.81-3.743-1.771-8.216-.172-9.986 3.573-1.771 3.745-.172 8.216 3.572 9.987 29.809 14.101 61.769 21.25 94.993 21.25 41.873 0 82.553-11.673 117.86-33.777 29.86 6.229 57.739 5.631 82.396-11.954 13.869-9.89 17.095-29.124 7.199-42.995-4.881-6.848-12.238-11.418-20.855-12.626zm-232.986-375.577c.821-11.255 10.303-20.071 21.587-20.071h49.598c11.284 0 20.767 8.816 21.587 20.071l2.734 37.5c-30.937-6.942-64.796-7.484-98.245.063zm162.995 347.697c-8.941-34.816-45.55-60.631-79.814-72.645 2.696-4.81 4.477-10.196 5.104-15.927 19.273-10.137 41.766-16.958 63.541-16.82 18.818.13 34.238 5.468 43.807 15.094-.632 34.041-12.563 65.228-32.638 90.298zm-105.105-52.637c5.479-1.557 10.505-4.192 14.835-7.667 22.58 7.01 42.654 18.651 56.85 33.044 13.206 13.389 20.335 28.057 20.304 41.623-3.797 3.66-7.781 7.125-11.942 10.363-20.432-5.351-42.847-9.506-64.652-5.073 1.694-22.626-3.698-48.02-15.395-72.29zm-23-81.096c-5.482 1.556-10.511 4.192-14.843 7.669-22.58-7.01-42.654-18.651-56.85-33.044-13.206-13.39-20.335-28.058-20.304-41.622 3.809-3.671 7.805-7.146 11.979-10.392 21.179 5.623 43.058 9.77 64.542 6.012-1.464 22.394 3.965 47.478 15.476 71.377zm11.496 13.393c14.974 0 27.156 12.182 27.156 27.156s-12.183 27.156-27.156 27.156-27.156-12.182-27.156-27.156 12.182-27.156 27.156-27.156zm148.369 10.61c-30.96-18.347-75.247-10.611-107.82 5.049-1.556-5.481-4.192-10.51-7.669-14.841 7.009-22.581 18.651-42.655 33.044-56.851 13.4-13.216 28.086-20.342 41.654-20.303 23.236 24.145 37.224 54.672 40.791 86.946zm-128.698-131.444c27.021 3.556 52.36 14.407 73.531 31.363-12.979 3.326-25.961 11.072-37.811 22.759-14.813 14.611-26.956 34.613-34.832 57.085-4.816-2.702-10.209-4.488-15.949-5.115-13.195-25.057-18.966-51.666-16.125-74.248 6.263-2.386 12.427-5.621 18.425-9.899 7.18-5.12 11.822-12.947 12.761-21.945zm-190.456 9.731c-7.104 5.067-17.007 3.41-22.074-3.696-5.078-7.118-3.427-16.994 3.695-22.073 55.417-39.52 129.817 27.933 168.987 0 7.121-5.076 16.995-3.43 22.074 3.696 5.078 7.118 3.427 16.993-3.696 22.074-55.327 39.457-130.381-27.534-168.986-.001zm54.156 45.102c8.904 34.597 45.319 60.517 79.834 72.619-2.695 4.809-4.477 10.195-5.104 15.925-20.916 10.997-43.337 16.917-63.541 16.822-18.818-.13-34.239-5.468-43.807-15.094.63-33.971 12.512-65.153 32.618-90.272zm-31.736 109.705c30.962 18.345 75.241 10.611 107.815-5.051 1.557 5.482 4.192 10.51 7.669 14.842-7.009 22.58-18.651 42.654-33.044 56.851-13.383 13.2-28.051 20.327-41.604 20.303-22.277-23.163-37.122-53.454-40.836-86.945zm131.109 131.734c-28.599-3.29-54.657-14.641-75.926-31.679 34.816-8.93 60.6-45.51 72.624-79.82 4.815 2.702 10.208 4.487 15.946 5.115 13.324 25.367 19.141 53.104 15.91 75.755-5.366 2.26-10.656 5.151-15.825 8.837-7.445 5.31-11.813 13.346-12.729 21.792zm208.804 16.191c-55.494 39.578-130.206-27.657-168.987 0-7.105 5.068-17.008 3.409-22.074-3.695-5.066-7.105-3.409-17.008 3.695-22.074 55.418-39.519 129.842 27.914 168.988 0 7.122-5.078 16.995-3.428 22.073 3.696 5.079 7.118 3.427 16.993-3.695 22.073z"/></g></svg>