<svg id="Capa_1" enable-background="new 0 0 512.034 512.034" height="512" viewBox="0 0 512.034 512.034" width="512" xmlns="http://www.w3.org/2000/svg"><g><path d="m281.566 409.371c-3.227-2.598-7.946-2.09-10.546 1.136l-69.154 85.847c-.317.392-.845 1.05-1.993.343-1.147-.706-.8-1.474-.593-1.933l41.572-91.969c2.251-4.979 1.898-10.737-.943-15.404s-7.795-7.624-13.251-7.912l-38.727-2.038c-.689-.036-1.059-.438-1.247-.768-.189-.33-.348-.852-.03-1.464l59.698-115.177c2.678-5.167 2.472-11.221-.552-16.193-3.024-4.973-8.304-7.942-14.124-7.942h-66.811c-.618 0-.997-.321-1.207-.59-.187-.24-.381-.622-.313-1.127l42.73-123.994c1.35-3.916-.731-8.185-4.648-9.534-3.915-1.349-8.185.731-9.534 4.647l-42.872 124.411c-.068.199-.129.401-.181.605-1.258 4.978-.17 10.156 2.984 14.207s7.908 6.374 13.042 6.374h66.811c.711 0 1.103.4 1.307.735s.378.868.051 1.499l-59.698 115.177c-2.597 5.009-2.473 10.923.33 15.819 2.804 4.897 7.841 7.997 13.477 8.294l38.727 2.038c.667.035 1.035.418 1.226.732.191.315.362.817.087 1.425l-41.572 91.969c-3.53 7.81-.898 16.399 6.403 20.889 2.802 1.723 5.832 2.56 8.808 2.56 4.776 0 9.411-2.158 12.724-6.27l69.154-85.847c2.599-3.225 2.09-7.947-1.135-10.545z"/><path d="m346.418 173.453h-47.893c-.685 0-1.075-.377-1.281-.694-.207-.316-.395-.825-.119-1.452l65.174-148.122c2.257-5.13 1.776-10.996-1.287-15.69-3.064-4.693-8.239-7.495-13.844-7.495h-107.234c-7.457 0-13.957 4.968-15.933 12.127l-21.769 63.171c-1.35 3.916.731 8.185 4.648 9.534 3.916 1.349 8.185-.731 9.534-4.647l21.857-63.425c.068-.199.129-.401.181-.605.171-.68.781-1.154 1.482-1.154h107.234c.685 0 1.075.377 1.281.694.207.316.395.825.119 1.452l-65.173 148.121c-2.257 5.13-1.777 10.996 1.286 15.689 3.063 4.694 8.238 7.497 13.844 7.497h47.893c.705 0 1.096.394 1.301.725.204.331.383.857.069 1.487l-68.572 137.6c-2.572 5.161-2.296 11.169.739 16.072s8.289 7.83 14.055 7.83h19.078c1.293 0 1.888.84 2.128 1.34s.52 1.491-.291 2.498l-24.962 30.988c-2.598 3.226-2.09 7.947 1.136 10.546 1.387 1.117 3.049 1.66 4.7 1.66 2.191 0 4.364-.956 5.846-2.795l24.962-30.988c4.232-5.253 5.053-12.297 2.141-18.383-2.912-6.085-8.912-9.866-15.658-9.866h-19.08c-.704 0-1.096-.394-1.301-.725-.204-.331-.382-.857-.068-1.487l68.572-137.6c2.572-5.161 2.295-11.169-.74-16.072-3.035-4.904-8.289-7.831-14.055-7.831z"/></g></svg>